<svg width="850" height="450" viewBox="0 0 850 450" xmlns="http://www.w3.org/2000/svg" role="img" aria-labelledby="descId">
    <title>LateBrix GitHub Profile</title>
    <desc id="descId">A terminal-style graphic showing LateBrix's profile information.</desc>
    
    <style>
        .text { font-family: Consolas, Monaco, 'Andale Mono', 'Ubuntu Mono', monospace; }
        .title { font-weight: bold; font-size: 20px; fill: #ffffff; }
        .term-text { font-size: 14px; fill: #c7d2fe; }
        .prompt { fill: #4ade80; }
        .command { fill: #ffffff; }
        .ascii { fill: #4ade80; font-size: 12px; }
        .cursor { animation: blink 1s step-end infinite; }
        @keyframes blink { 0%, 100% { opacity: 1; } 50% { opacity: 0; } }
    </style>

    <!-- Background -->
    <rect width="100%" height="100%" fill="#12101e" />
    <path d="M25.0,404.9 L0.0,403.8 M50.0,404.6 L25.0,404.9 M75.0,402.6 L50.0,404.6 M100.0,399.4 L96.2,400.0 M96.2,400.0 L75.0,402.6 M125.0,398.2 L100.0,399.4 M128.6,400.0 L125.0,398.2 M128.6,400.0 L133.2,425.0 M133.2,425.0 L127.4,450.0 M175.0,295.2 L172.3,300.0 M172.3,300.0 L168.1,325.0 M168.1,325.0 L169.9,350.0 M169.9,350.0 L175.0,357.1 M200.0,262.6 L187.5,275.0 M187.5,275.0 L175.0,295.2 M175.0,357.1 L200.0,352.5 M225.0,245.6 L216.7,250.0 M216.7,250.0 L200.0,262.6 M225.0,338.9 L203.9,350.0 M200.0,352.5 L203.9,350.0 M250.0,239.9 L225.0,245.6 M250.0,321.7 L245.1,325.0 M225.0,338.9 L245.1,325.0 M275.0,244.7 L250.0,239.9 M275.0,298.5 L274.1,300.0 M250.0,321.7 L274.1,300.0 M282.1,250.0 L275.0,244.7 M282.1,250.0 L287.0,275.0 M275.0,298.5 L287.0,275.0 M650.0,191.7 L644.7,200.0 M644.7,200.0 L649.9,225.0 M649.9,225.0 L650.0,225.0 M675.0,158.8 L659.7,175.0 M659.7,175.0 L650.0,191.7 M650.0,225.0 L675.0,235.1 M700.0,131.9 L682.0,150.0 M682.0,150.0 L675.0,158.8 M675.0,235.1 L700.0,243.5 M725.0,112.7 L708.4,125.0 M708.4,125.0 L700.0,131.9 M700.0,243.5 L714.0,250.0 M714.0,250.0 L725.0,253.7 M750.0,107.0 L725.0,112.7 M725.0,253.7 L750.0,266.3 M775.0,116.0 L750.0,107.0 M750.0,266.3 L762.9,275.0 M762.9,275.0 L775.0,283.1 M786.4,125.0 L775.0,116.0 M786.4,125.0 L800.0,135.3 M775.0,283.1 L795.9,300.0 M795.9,300.0 L800.0,303.6 M815.5,150.0 L800.0,135.3 M815.5,150.0 L825.0,159.0 M800.0,303.6 L824.1,325.0 M824.1,325.0 L825.0,325.9 M841.0,175.0 L825.0,159.0 M841.0,175.0 L850.0,184.4 M825.0,325.9 L850.0,346.2 " stroke="#1a1c2c" stroke-width="1.5" fill="none" opacity="0.6" /><path d="M25.0,332.1 L0.0,333.3 M50.0,325.4 L25.0,332.1 M75.0,310.9 L50.7,325.0 M50.7,325.0 L50.0,325.4 M100.0,288.1 L86.3,300.0 M86.3,300.0 L75.0,310.9 M125.0,261.5 L111.5,275.0 M111.5,275.0 L100.0,288.1 M150.0,236.1 L135.5,250.0 M135.5,250.0 L125.0,261.5 M175.0,214.8 L162.3,225.0 M162.3,225.0 L150.0,236.1 M200.0,198.2 L197.2,200.0 M197.2,200.0 L175.0,214.8 M225.0,186.2 L200.0,198.2 M225.0,426.8 L202.7,450.0 M250.0,177.3 L225.0,186.2 M250.0,405.1 L226.9,425.0 M225.0,426.8 L226.9,425.0 M275.0,171.2 L260.0,175.0 M260.0,175.0 L250.0,177.3 M275.0,384.9 L256.4,400.0 M250.0,405.1 L256.4,400.0 M300.0,167.8 L275.0,171.2 M300.0,364.2 L287.7,375.0 M275.0,384.9 L287.7,375.0 M325.0,166.6 L300.0,167.8 M325.0,341.4 L316.3,350.0 M300.0,364.2 L316.3,350.0 M333.5,0.0 L350.0,17.1 M350.0,166.7 L325.0,166.6 M350.0,315.7 L341.6,325.0 M325.0,341.4 L341.6,325.0 M350.0,17.1 L359.3,25.0 M359.3,25.0 L375.0,41.9 M375.0,169.0 L350.0,166.7 M375.0,285.5 L364.7,300.0 M350.0,315.7 L364.7,300.0 M375.0,41.9 L387.5,50.0 M387.5,50.0 L400.0,62.6 M392.9,175.0 L375.0,169.0 M392.9,175.0 L400.0,180.8 M400.0,244.7 L398.4,250.0 M398.4,250.0 L383.9,275.0 M375.0,285.5 L383.9,275.0 M400.0,62.6 L425.0,71.0 M412.6,200.0 L400.0,180.8 M412.6,200.0 L409.9,225.0 M400.0,244.7 L409.9,225.0 M425.0,71.0 L450.0,63.8 M475.0,38.3 L462.3,50.0 M450.0,63.8 L462.3,50.0 M500.0,0.0 L483.5,25.0 M475.0,38.3 L483.5,25.0 M500.0,168.4 L493.6,175.0 M493.6,175.0 L491.4,200.0 M491.4,200.0 L500.0,213.1 M525.0,146.3 L517.3,150.0 M517.3,150.0 L500.0,168.4 M500.0,213.1 L504.1,225.0 M504.1,225.0 L523.1,250.0 M523.1,250.0 L525.0,251.6 M550.0,134.0 L525.0,146.3 M525.0,251.6 L546.0,275.0 M546.0,275.0 L550.0,278.4 M575.0,122.5 L568.5,125.0 M568.5,125.0 L550.0,134.0 M550.0,278.4 L574.0,300.0 M574.0,300.0 L575.0,300.8 M600.0,110.0 L575.0,122.5 M575.0,300.8 L600.0,317.7 M625.0,93.1 L615.4,100.0 M615.4,100.0 L600.0,110.0 M600.0,317.7 L616.5,325.0 M616.5,325.0 L625.0,328.6 M650.0,65.3 L643.3,75.0 M643.3,75.0 L625.0,93.1 M625.0,328.6 L650.0,332.9 M666.6,0.0 L665.4,25.0 M665.4,25.0 L658.7,50.0 M658.7,50.0 L650.0,65.3 M650.0,332.9 L675.0,333.3 M675.0,333.3 L700.0,335.8 M700.0,335.8 L725.0,344.6 M725.0,344.6 L733.3,350.0 M733.3,350.0 L750.0,359.9 M750.0,359.9 L768.0,375.0 M768.0,375.0 L775.0,380.1 M775.0,380.1 L798.5,400.0 M798.5,400.0 L800.0,401.2 M800.0,401.2 L825.0,419.9 M833.4,0.0 L834.4,25.0 M834.4,25.0 L840.2,50.0 M840.2,50.0 L850.0,70.1 M825.0,419.9 L833.3,425.0 M833.3,425.0 L850.0,435.1 " stroke="#1a1c2c" stroke-width="1.5" fill="none" opacity="0.6" /><path d="M0.0,70.4 L25.0,69.7 M25.0,261.8 L0.0,262.9 M25.0,69.7 L50.0,66.0 M50.0,255.5 L25.0,261.8 M50.0,66.0 L75.0,57.7 M75.0,241.8 L60.1,250.0 M60.1,250.0 L50.0,255.5 M100.0,43.9 L89.6,50.0 M75.0,57.7 L89.6,50.0 M100.0,222.3 L96.7,225.0 M96.7,225.0 L75.0,241.8 M100.0,43.9 L125.0,26.0 M125.0,200.1 L100.0,222.3 M150.0,8.9 L126.5,25.0 M125.0,26.0 L126.5,25.0 M150.0,178.6 L125.1,200.0 M125.1,200.0 L125.0,200.1 M150.0,8.9 L168.2,0.0 M175.0,160.6 L155.1,175.0 M155.1,175.0 L150.0,178.6 M200.0,146.4 L194.0,150.0 M194.0,150.0 L175.0,160.6 M225.0,133.4 L200.0,146.4 M232.3,0.0 L250.0,9.2 M250.0,120.4 L242.9,125.0 M242.9,125.0 L225.0,133.4 M250.0,9.2 L269.7,25.0 M269.7,25.0 L275.0,31.4 M275.0,103.3 L250.0,120.4 M275.0,446.0 L270.4,450.0 M275.0,31.4 L287.8,50.0 M287.8,50.0 L292.2,75.0 M292.2,75.0 L279.3,100.0 M279.3,100.0 L275.0,103.3 M275.0,446.0 L300.0,426.7 M325.0,409.6 L302.4,425.0 M300.0,426.7 L302.4,425.0 M350.0,391.7 L338.7,400.0 M325.0,409.6 L338.7,400.0 M375.0,372.6 L372.2,375.0 M350.0,391.7 L372.2,375.0 M375.0,372.6 L400.0,353.2 M425.0,336.9 L405.3,350.0 M400.0,353.2 L405.3,350.0 M425.0,336.9 L450.0,327.4 M450.0,327.4 L475.0,326.2 M475.0,326.2 L500.0,333.2 M500.0,333.2 L525.0,347.1 M525.0,347.1 L528.9,350.0 M528.9,350.0 L550.0,363.8 M550.0,363.8 L566.6,375.0 M566.6,375.0 L575.0,380.1 M575.0,380.1 L600.0,392.6 M600.0,392.6 L623.3,400.0 M623.3,400.0 L625.0,400.5 M625.0,400.5 L650.0,403.6 M650.0,403.6 L675.0,403.9 M675.0,403.9 L700.0,406.1 M700.0,406.1 L725.0,413.6 M725.0,413.6 L746.3,425.0 M746.3,425.0 L750.0,427.2 M750.0,427.2 L775.0,445.9 M775.0,445.9 L780.1,450.0 " stroke="#1a1c2c" stroke-width="1.5" fill="none" opacity="0.6" /><path d="M375.0,445.0 L368.5,450.0 M375.0,445.0 L400.0,425.8 M425.0,412.3 L401.2,425.0 M400.0,425.8 L401.2,425.0 M425.0,412.3 L450.0,404.1 M450.0,404.1 L475.0,403.0 M475.0,403.0 L500.0,409.2 M500.0,409.2 L525.0,420.6 M525.0,420.6 L532.7,425.0 M532.7,425.0 L550.0,436.7 M550.0,436.7 L571.3,450.0 " stroke="#1a1c2c" stroke-width="1.5" fill="none" opacity="0.6" />

    <!-- Terminal Window Shadow -->
    <rect x="135" y="75" width="600" height="320" rx="8" fill="#000" opacity="0.3" />

    <!-- Terminal Window -->
    <rect x="125" y="65" width="600" height="320" rx="8" fill="#0d1117" stroke="#30363d" stroke-width="1" />

    <!-- Terminal Header -->
    <rect x="125" y="65" width="600" height="32" rx="8" fill="#161b22" />
    <!-- Straighten bottom corners of header -->
    <rect x="125" y="85" width="600" height="12" fill="#161b22" />
    <path d="M125 97 L725 97" stroke="#30363d" stroke-width="1" />

    <!-- Window Controls -->
    <circle cx="145" cy="81" r="6" fill="#ef4444" />
    <circle cx="165" cy="81" r="6" fill="#eab308" />
    <circle cx="185" cy="81" r="6" fill="#22c55e" />
    
    <!-- Header Title -->
    <text x="425" y="86" text-anchor="middle" class="text" fill="#6b7280" font-size="12">latebrix@github:~</text>

    <!-- Terminal Content -->
    <g transform="translate(150, 125)">
        
        <!-- Welcome Message -->
        <text x="0" y="0" class="text title">hey, i'm Mohamed.</text>
        <text x="0" y="25" class="text term-text">You can call me LateBrix.</text>

        <!-- Command Line 1 -->
        <text x="0" y="60" class="text term-text">
            <tspan class="prompt">latebrix@github:~$</tspan> <tspan class="command">ask glitch about latebrix</tspan>
        </text>

        <!-- ASCII Art Response -->
        <g transform="translate(0, 80)">
             <text x="0" y="0" class="text ascii" xml:space="preserve">  ,___,</text><text x="0" y="15" class="text ascii" xml:space="preserve">  [O.o]</text><text x="0" y="30" class="text ascii" xml:space="preserve">  /)__)</text><text x="0" y="45" class="text ascii" xml:space="preserve">--"--"--</text>
             
             <!-- Glitch Response Text -->
             <text x="100" y="15" class="text term-text">Glitch says: He believes code is a choice.</text>
             <text x="100" y="35" class="text term-text">He doesn't just build systems that run;</text>
             <text x="100" y="55" class="text term-text">he builds systems that <tspan fill="#4ade80">matter</tspan> and <tspan fill="#4ade80">empower</tspan>.</text>
        </g>

        <!-- Command Line 2 -->
        <text x="0" y="155" class="text term-text">
            <tspan class="prompt">latebrix@github:~$</tspan> <tspan class="command">cat current_mission.txt</tspan>
        </text>
        <text x="0" y="180" class="text term-text">
             > Leading <tspan fill="#4ade80">MetrLoom</tspan> (Spreading Data Science among Students)
        </text>

        <!-- Command Line 3 (Active) -->
        <text x="0" y="235" class="text term-text">
            <tspan class="prompt">latebrix@github:~$</tspan> <tspan class="cursor">_</tspan>
        </text>

    </g>
</svg>